<?xml version="1.0" encoding="utf-8"?>
<!-- Generator: Adobe Illustrator 20.0.0, SVG Export Plug-In . SVG Version: 6.00 Build 0)  -->
<svg version="1.0" id="Layer_1" xmlns="http://www.w3.org/2000/svg" xmlns:xlink="http://www.w3.org/1999/xlink" x="0px" y="0px"
	 viewBox="0 0 100 100" style="enable-background:new 0 0 100 100;" xml:space="preserve">
<style type="text/css">
	.st0{fill:#010101;}
</style>
<g>
	<g id="XMLID_122_">
		<g>
			<g>
				<path d="M65,25.3c0.3,0,0.5,0,0.7,0.1c0.5,0.7,1.4,2.8,0.6,7.5c0.6,1,3.5,3.2,3.5,9.3c0,1.4-0.1,2.7-0.3,3.9
					C68.3,53.1,62,55.8,56,56.4c2.1,1.3,2.7,3,2.7,7.4c0,4.5-0.1,5.1,0,6.1c0,1.7,2.5,2.5,2.4,3c0,0.3-0.6,0.4-1.2,0.4
					c-0.6,0-1.3-0.1-1.8-0.3c-2.6-0.9-2.4-3.1-2.4-3.1l-0.4-6c0,0-0.2-3.2-1.3-3.2v9.8c0,2.1,1.8,2.8,1.8,3.6c0,0.4-0.2,0.5-0.5,0.5
					c-0.8,0-2.3-0.9-2.9-1.5c-1.3-1.3-1.1-4-1-6.1c0-2.1,0-6.6,0-6.6l-0.8,0c0,0,0.4,9.9-0.4,11.7c-0.7,1.6-2.5,2.5-3.5,2.5
					c-0.4,0-0.7-0.2-0.7-0.5c0-0.7,0.8-0.5,1.2-2.1c0.4-1.4,0.2-11.5,0.2-11.5s-1,0.6-1,2.5c0,0.9,0,5.8,0,7.3
					c0,1.9-2.6,2.9-3.9,2.9c-0.6,0-1.4,0-1.4-0.4c0-0.9,2.4-1.4,2.4-3.1c0-1.5,0-5.5,0-5.5s-1.2,0.2-2.9,0.2c-4.4,0-5.7-2.8-6.4-4.3
					c-0.9-2-2-3-3.1-3.7c-0.7-0.5-0.9-1-0.1-1.2c0.3,0,0.5-0.1,0.7-0.1c3.3,0,4.3,4.5,6.7,5.3c0.7,0.2,1.5,0.3,2.2,0.3
					c1.2,0,2.4-0.3,3.2-0.8c0.2-1.6,1.3-2.9,2.2-3.6c-6.2-0.6-12.6-4-14.1-12c-0.1-0.9-0.2-1.9-0.2-2.9c0-4.2,1.3-5.8,3.1-8.1
					c-1.3-4.8,0.5-8.1,0.5-8.1s0.2,0,0.5,0c1,0,3.6,0.3,7.7,3.3c1.6-0.7,4.6-1,7.6-1c2.5,0,5.1,0.2,6.8,0.7
					C59.6,27.1,63.1,25.3,65,25.3 M65,22.3c-2.6,0-6,1.8-7.9,2.9c-2.3-0.5-4.8-0.5-6.2-0.5c-1.4,0-4.5,0.1-7.1,0.7
					c-4-2.6-6.8-3-8.2-3c-0.5,0-0.9,0.1-1.1,0.1c-0.9,0.2-1.6,0.7-2,1.5c-0.2,0.4-2,3.8-1.1,8.8c-1.5,2.1-2.8,4.3-2.8,8.8
					c0,1.1,0.1,2.1,0.2,3.2c0,0.1,0,0.1,0,0.2c0.5,2.8,1.6,5.2,3.1,7.3c-0.1,0-0.2,0-0.4,0c-0.4,0-0.9,0-1.3,0.1
					c-1.8,0.3-2.7,1.6-2.9,2.7c-0.3,1.5,0.4,2.9,1.9,3.9c0.8,0.5,1.4,1,2,2.4c1.7,4.1,4.8,6.2,9.1,6.2c0,0.7,0,1.3,0,1.8
					c-0.1,0.1-0.2,0.1-0.3,0.2c-0.7,0.5-2.1,1.5-2.1,3.4c0,0.8,0.3,3.4,4.4,3.4c0.4,0,0.8,0,1.1-0.1c0.7,0.9,1.7,1.4,3,1.4
					c1.3,0,3-0.6,4.4-1.8c1,0.8,2.7,1.8,4.3,1.8c1.2,0,2.3-0.6,2.9-1.5c0.5,0.1,1.1,0.1,1.6,0.1c3.4,0,4.1-2.2,4.2-2.9
					c0.3-2-1.2-3.2-1.9-3.7c-0.1-0.1-0.3-0.2-0.5-0.3c0-0.2,0-0.4,0-0.7c0-0.8,0-2.1,0-4.9c0-2.1-0.1-3.9-0.6-5.4
					c6.3-1.9,10.4-6.1,11.3-12c0.2-1.4,0.3-2.8,0.4-4.3c0,0,0,0,0-0.1c0-5.6-2.1-8.6-3.3-10.1c0.5-4.3-0.3-6.8-1.2-8.2
					c-0.4-0.6-0.9-1-1.5-1.2C66.2,22.4,65.6,22.3,65,22.3L65,22.3z"/>
			</g>
		</g>
	</g>
	<g>
		<path class="st0" d="M85.4,14.6C75.9,5.2,63.4,0,50,0C36.6,0,24.1,5.2,14.6,14.6S0,36.6,0,50c0,13.4,5.2,25.9,14.6,35.4
			c9.4,9.4,22,14.6,35.4,14.6c13.4,0,25.9-5.2,35.4-14.6c9.4-9.4,14.6-22,14.6-35.4C100,36.6,94.8,24.1,85.4,14.6z M83.1,83.1
			C74.3,92,62.5,96.9,50,96.9c-12.5,0-24.3-4.9-33.1-13.7C8,74.3,3.1,62.5,3.1,50c0-12.5,4.9-24.3,13.7-33.1C25.7,8,37.5,3.1,50,3.1
			c12.5,0,24.3,4.9,33.1,13.7C92,25.7,96.9,37.5,96.9,50C96.9,62.5,92,74.3,83.1,83.1z"/>
		<path class="st0" d="M84,22.5c-0.5-0.7-1.5-0.8-2.2-0.2c-0.7,0.5-0.8,1.5-0.2,2.2c5.8,7.2,9.1,16.3,9.1,25.6
			c0,10.9-4.2,21.1-11.9,28.7C71.1,86.4,60.9,90.6,50,90.6c-10,0-19.6-3.7-27.1-10.3c-0.6-0.6-1.6-0.5-2.2,0.1
			c-0.6,0.6-0.5,1.6,0.1,2.2c8,7.2,18.4,11.1,29.2,11.1c11.7,0,22.7-4.6,30.9-12.8c8.3-8.3,12.8-19.2,12.8-30.9
			C93.8,40,90.3,30.2,84,22.5z"/>
		<path class="st0" d="M9.4,50C9.4,27.6,27.6,9.4,50,9.4c10,0,19.6,3.7,27.1,10.3c0.6,0.6,1.6,0.5,2.2-0.1c0.6-0.6,0.5-1.6-0.1-2.2
			C71.1,10.2,60.8,6.2,50,6.2c-11.7,0-22.7,4.6-30.9,12.8C10.8,27.3,6.2,38.3,6.2,50c0,10,3.5,19.8,9.8,27.5
			c0.3,0.4,0.8,0.6,1.2,0.6c0.3,0,0.7-0.1,1-0.3c0.7-0.5,0.8-1.5,0.2-2.2C12.6,68.4,9.4,59.3,9.4,50z"/>
	</g>
</g>
</svg>
