<?xml version="1.0" encoding="utf-8"?>
<!-- Generator: Adobe Illustrator 20.0.0, SVG Export Plug-In . SVG Version: 6.00 Build 0)  -->
<svg version="1.1" id="Layer_1" xmlns="http://www.w3.org/2000/svg" xmlns:xlink="http://www.w3.org/1999/xlink" x="0px" y="0px"
	 viewBox="0 0 100 100" style="enable-background:new 0 0 100 100;" xml:space="preserve">
<style type="text/css">
	.st0{fill:#FFFFFF;}
</style>
<g>
	<g id="XMLID_122_">
		<g>
			<g>
				<path class="st0" d="M65,25.3 M51.1,27.5 M65,22.3c-2.6,0-6,1.8-7.9,2.9c-2.3-0.5-4.8-0.5-6.2-0.5s-4.5,0.1-7.1,0.7
					c-4-2.6-6.8-3-8.2-3c-0.5,0-0.9,0.1-1.1,0.1c-0.9,0.2-1.6,0.7-2,1.5c-0.2,0.4-2,3.8-1.1,8.8c-1.5,2.1-2.8,4.3-2.8,8.8
					c0,1.1,0.1,2.1,0.2,3.2c0,0.1,0,0.1,0,0.2c0.5,2.8,1.6,5.2,3.1,7.3c-0.1,0-0.2,0-0.4,0c-0.4,0-0.9,0-1.3,0.1
					c-1.8,0.3-2.7,1.6-2.9,2.7C27,56.6,27.7,58,29.2,59c0.8,0.5,1.4,1,2,2.4c1.7,4.1,4.8,6.2,9.1,6.2c0,0.7,0,1.3,0,1.8
					c-0.1,0.1-0.2,0.1-0.3,0.2c-0.7,0.5-2.1,1.5-2.1,3.4c0,0.8,0.3,3.4,4.4,3.4c0.4,0,0.8,0,1.1-0.1c0.7,0.9,1.7,1.4,3,1.4
					s3-0.6,4.4-1.8c1,0.8,2.7,1.8,4.3,1.8c1.2,0,2.3-0.6,2.9-1.5c0.5,0.1,1.1,0.1,1.6,0.1c3.4,0,4.1-2.2,4.2-2.9
					c0.3-2-1.2-3.2-1.9-3.7c-0.1-0.1-0.3-0.2-0.5-0.3c0-0.2,0-0.4,0-0.7c0-0.8,0-2.1,0-4.9c0-2.1-0.1-3.9-0.6-5.4
					c6.3-1.9,10.4-6.1,11.3-12c0.2-1.4,0.3-2.8,0.4-4.3c0,0,0,0,0-0.1c0-5.6-2.1-8.6-3.3-10.1c0.5-4.3-0.3-6.8-1.2-8.2
					c-0.4-0.6-0.9-1-1.5-1.2C66.2,22.4,65.6,22.3,65,22.3L65,22.3z"/>
			</g>
		</g>
	</g>
	<g>
		<path class="st0" d="M85.4,14.6C75.9,5.2,63.4,0,50,0S24.1,5.2,14.6,14.6S0,36.6,0,50s5.2,25.9,14.6,35.4C24,94.8,36.6,100,50,100
			s25.9-5.2,35.4-14.6C94.8,76,100,63.4,100,50S94.8,24.1,85.4,14.6z M83.1,83.1C74.3,92,62.5,96.9,50,96.9S25.7,92,16.9,83.2
			C8,74.3,3.1,62.5,3.1,50S8,25.7,16.8,16.9C25.7,8,37.5,3.1,50,3.1S74.3,8,83.1,16.8C92,25.7,96.9,37.5,96.9,50S92,74.3,83.1,83.1z
			"/>
		<path class="st0" d="M84,22.5c-0.5-0.7-1.5-0.8-2.2-0.2c-0.7,0.5-0.8,1.5-0.2,2.2c5.8,7.2,9.1,16.3,9.1,25.6
			c0,10.9-4.2,21.1-11.9,28.7C71.1,86.4,60.9,90.6,50,90.6c-10,0-19.6-3.7-27.1-10.3c-0.6-0.6-1.6-0.5-2.2,0.1s-0.5,1.6,0.1,2.2
			c8,7.2,18.4,11.1,29.2,11.1c11.7,0,22.7-4.6,30.9-12.8c8.3-8.3,12.8-19.2,12.8-30.9C93.8,40,90.3,30.2,84,22.5z"/>
		<path class="st0" d="M9.4,50C9.4,27.6,27.6,9.4,50,9.4c10,0,19.6,3.7,27.1,10.3c0.6,0.6,1.6,0.5,2.2-0.1s0.5-1.6-0.1-2.2
			C71.1,10.2,60.8,6.2,50,6.2c-11.7,0-22.7,4.6-30.9,12.8C10.8,27.3,6.2,38.3,6.2,50c0,10,3.5,19.8,9.8,27.5
			c0.3,0.4,0.8,0.6,1.2,0.6c0.3,0,0.7-0.1,1-0.3c0.7-0.5,0.8-1.5,0.2-2.2C12.6,68.4,9.4,59.3,9.4,50z"/>
	</g>
</g>
</svg>
