<?xml version="1.0" encoding="utf-8"?>
<!-- Generator: Adobe Illustrator 20.0.0, SVG Export Plug-In . SVG Version: 6.00 Build 0)  -->
<svg version="1.1" id="Layer_1" xmlns="http://www.w3.org/2000/svg" xmlns:xlink="http://www.w3.org/1999/xlink" x="0px" y="0px"
	 viewBox="0 0 100 100" style="enable-background:new 0 0 100 100;" xml:space="preserve">
<style type="text/css">
	.st0{fill:#4A0B7C;}
</style>
<g>
	<path class="st0" d="M72.9,32c-8,0-14.5,6.5-14.5,14.5c0,4.8,2.4,9.1,6,11.8l-2.6,5.3l-9.7-15.3h3.2c0.7,0,1.1-0.7,0.8-1.3
		l-3.4-7.9c-0.2-0.4-0.6-0.6-1.1-0.5L51,38.9c-0.5,0.1-0.8,0.7-0.6,1.2l2,4.4c0.3,0.6-0.2,1.3-0.8,1.3l-10-0.2
		C41.1,38,34.8,32,27.1,32c-8,0-14.5,6.5-14.5,14.5S19.1,61,27.1,61c7.5,0,13.6-5.6,14.4-12.9l5.7,0.1l-9.3,15.2l-1.7-2.6
		c-0.4-0.6-1.2-0.6-1.5,0L30,68c-0.2,0.4-0.2,0.9,0.2,1.2l0.6,0.5c0.4,0.4,1.1,0.3,1.4-0.2l2.6-4.1c0.4-0.6,1.2-0.6,1.5,0l5.2,8.4
		c-3.6,2.6-6,6.9-6,11.7c0,8,6.5,14.5,14.5,14.5s14.5-6.5,14.5-14.5S58,71,50,71c-2.3,0-4.4,0.5-6.3,1.5l-3.1-4.9h19.3l-1.5,3
		c-0.3,0.6,0.1,1.3,0.8,1.3l8.6,0.4c0.5,0,0.9-0.3,0.9-0.7l0.1-0.7c0.1-0.5-0.3-1.1-0.9-1.1L63,69.5c-0.7,0-1.1-0.7-0.8-1.3l4.4-8.5
		c1.9,0.9,4,1.5,6.3,1.5c8,0,14.5-6.5,14.5-14.5C87.4,38.5,80.9,32,72.9,32z M25.5,49c1.4,0.9,3.4,0.5,4.3-0.9l9.5,0.1
		c-0.8,6-5.9,10.7-12.2,10.7c-6.8,0-12.3-5.5-12.3-12.3s5.5-12.3,12.3-12.3c6.5,0,11.8,5,12.3,11.4l-9.2-0.2l0,0
		c-0.2-0.7-0.6-1.3-1.3-1.7c-1.4-0.9-3.4-0.5-4.3,0.9C23.6,46.1,24,48,25.5,49z M47.6,83.5L47.6,83.5c-0.4,0.5-0.7,1.2-0.7,2
		c0,1.7,1.4,3.1,3.1,3.1s3.1-1.4,3.1-3.1s-1.4-3.1-3.1-3.1l-5.2-8.1c1.6-0.7,3.3-1.1,5.2-1.1c6.8,0,12.3,5.5,12.3,12.3
		S56.8,97.8,50,97.8s-12.3-5.5-12.3-12.3c0-4,2-7.6,5-9.9L47.6,83.5z M58.2,64.4H41.7c-0.4,0-0.6-0.4-0.4-0.7l8.3-13.5
		c0.2-0.3,0.6-0.3,0.8,0l8.2,13.5C58.8,64,58.6,64.4,58.2,64.4z M72.9,58.9c-1.9,0-3.7-0.4-5.3-1.2l4.4-8.6l0,0
		c0.7,0.1,1.4,0,2.1-0.4c1.5-0.9,2-2.8,1.1-4.3s-2.8-2-4.3-1.1s-2,2.8-1.1,4.3l-4.3,8.7c-2.9-2.3-4.8-5.8-4.8-9.8
		c0-6.8,5.5-12.3,12.3-12.3c6.8,0,12.3,5.5,12.3,12.3C85.2,53.3,79.7,58.9,72.9,58.9z"/>
	<path class="st0" d="M42.1,20.4l5.6,7.5c0.4,0.2,0.6,0.6,0.7,1l0.9,4.5c0.2,0.7,0.8,1.3,1.6,1.3c1,0,1.7-0.9,1.6-1.9l-0.9-5.9
		l6.2,0.6C71.3,28.9,83.3,19,84.6,5.6L85,0.9l-7.6-0.8c-13.5-1.3-25.6,8.5-26.9,22l-0.1,1.2l-4.1-6.9c-0.5-0.9-1.7-1-2.5-0.4
		l-1.9,1.9C41.1,18.6,41.2,19.8,42.1,20.4z"/>
</g>
</svg>
