<?xml version="1.0" encoding="utf-8"?>
<!-- Generator: Adobe Illustrator 20.0.0, SVG Export Plug-In . SVG Version: 6.00 Build 0)  -->
<svg version="1.0" id="Layer_1" xmlns="http://www.w3.org/2000/svg" xmlns:xlink="http://www.w3.org/1999/xlink" x="0px" y="0px"
	 viewBox="0 0 100 100" style="enable-background:new 0 0 100 100;" xml:space="preserve">
<style type="text/css">
	.st0{fill:#010101;}
</style>
<g>
	<g>
		<path class="st0" d="M85.4,14.6C75.9,5.2,63.4,0,50,0C36.6,0,24.1,5.2,14.6,14.6S0,36.6,0,50c0,13.4,5.2,25.9,14.6,35.4
			c9.4,9.4,22,14.6,35.4,14.6c13.4,0,25.9-5.2,35.4-14.6c9.4-9.4,14.6-22,14.6-35.4C100,36.6,94.8,24.1,85.4,14.6z M83.1,83.1
			C74.3,92,62.5,96.9,50,96.9c-12.5,0-24.3-4.9-33.1-13.7C8,74.3,3.1,62.5,3.1,50c0-12.5,4.9-24.3,13.7-33.1C25.7,8,37.5,3.1,50,3.1
			c12.5,0,24.3,4.9,33.1,13.7C92,25.7,96.9,37.5,96.9,50C96.9,62.5,92,74.3,83.1,83.1z"/>
		<path class="st0" d="M84,22.5c-0.5-0.7-1.5-0.8-2.2-0.2c-0.7,0.5-0.8,1.5-0.2,2.2c5.8,7.2,9.1,16.3,9.1,25.6
			c0,10.9-4.2,21.1-11.9,28.7C71.1,86.4,60.9,90.6,50,90.6c-10,0-19.6-3.7-27.1-10.3c-0.6-0.6-1.6-0.5-2.2,0.1
			c-0.6,0.6-0.5,1.6,0.1,2.2c8,7.2,18.4,11.1,29.2,11.1c11.7,0,22.7-4.6,30.9-12.8c8.3-8.3,12.8-19.2,12.8-30.9
			C93.8,40,90.3,30.2,84,22.5z"/>
		<path class="st0" d="M9.4,50C9.4,27.6,27.6,9.4,50,9.4c10,0,19.6,3.7,27.1,10.3c0.6,0.6,1.6,0.5,2.2-0.1c0.6-0.6,0.5-1.6-0.1-2.2
			C71.1,10.2,60.8,6.2,50,6.2c-11.7,0-22.7,4.6-30.9,12.8C10.8,27.3,6.2,38.3,6.2,50c0,10,3.5,19.8,9.8,27.5
			c0.3,0.4,0.8,0.6,1.2,0.6c0.3,0,0.7-0.1,1-0.3c0.7-0.5,0.8-1.5,0.2-2.2C12.6,68.4,9.4,59.3,9.4,50z"/>
	</g>
	<path class="st0" d="M63.6,72.9h9.7c0.9,0,1.6-0.7,1.6-1.6V54.6c0-4.7-1.2-8.4-3.6-11c-2.2-2.4-5.4-3.7-9.1-3.7
		c-3.2,0-5.5,1-7.2,2.3v0c0-0.9-0.7-1.6-1.6-1.6h-9.7c-0.4,0-0.8,0.2-1.1,0.5c-0.3,0.3-0.5,0.7-0.4,1.2c0.1,2.7,0,28.8,0,29
		c0,0.4,0.2,0.8,0.5,1.1c0.3,0.3,0.7,0.5,1.1,0.5h9.7c0.9,0,1.6-0.7,1.6-1.6V55c0-0.8,0.1-1.4,0.2-1.8c0.3-0.8,1.3-2.6,3.5-2.6
		c0.9,0,3.3,0,3.3,5v15.6C62,72.2,62.7,72.9,63.6,72.9z M58.7,47.6c-2.9,0-5.3,1.7-6.4,4.5c-0.3,0.7-0.4,1.6-0.4,3v14.7h-6.5
		c0-5,0.1-20.6,0-26h6.5v2.6c0,0.7,0.5,1.3,1.1,1.5c0.7,0.2,1.4-0.1,1.8-0.6c1.3-2,3.2-4.1,7.4-4.1c6.1,0,9.6,4.2,9.6,11.5v15.1
		h-6.6v-14c0-2.4-0.5-4.3-1.4-5.6C62.6,48.4,60.9,47.6,58.7,47.6z"/>
	<path class="st0" d="M40.6,33.1c-0.1-3.9-2.9-6.6-7-6.6c-4.1,0-7,2.8-7,6.6s2.9,6.6,6.9,6.6h0.1C37.6,39.8,40.6,37,40.6,33.1
		C40.6,33.1,40.6,33.1,40.6,33.1z M33.5,36.6L33.5,36.6c-2.3,0-3.8-1.4-3.8-3.5c0-2.1,1.6-3.5,3.9-3.5c2.3,0,3.8,1.3,3.9,3.5
		C37.4,35.2,35.9,36.6,33.5,36.6z"/>
	<path class="st0" d="M28.7,40.6c-0.9,0-1.6,0.7-1.6,1.6v29.1c0,0.9,0.7,1.6,1.6,1.6h9.7c0.9,0,1.6-0.7,1.6-1.6V42.2
		c0-0.9-0.7-1.6-1.6-1.6H28.7z M36.8,69.7h-6.6v-26h6.6V69.7z"/>
</g>
</svg>
